# xmcd CD database file
#
# Track frame offsets:
#	150
#	21713
#	40443
#	60541
#	85495
#	100728
#	114852
#	134801
#	152747
#	177345
#	189000
#	196269
#	211010
#	221344
#	251511
#
# Disc length: 3673 seconds
#
# Revision: 0
# Processed by: cddbd v1.5.1PL0 Copyright (c) Steve Scherf et al.
# Submitted via: CDex 1.51
#
DISCID=cf0e570f
DTITLE=Buddy Emmons - Live in Boston July 1977
DYEAR=1977
DGENRE=Jazz
TTITLE0=Blues In C
TTITLE1=Blue Jade
TTITLE2=The Preacher
TTITLE3=Lil Darlin'
TTITLE4=Broken Down in Tiny Pieces
TTITLE5=Truck Drivin' Man
TTITLE6=Danny Boy
TTITLE7=Autumn Fling
TTITLE8=Watch What Happens
TTITLE9=Greensleeves
TTITLE10=Raisin' the Dickens
TTITLE11=King of the Road
TTITLE12=Kicks to Boot
TTITLE13=The Great Stream
TTITLE14=FAST Blues in C
EXTD=YEAR: 1977
EXTT0=
EXTT1=
EXTT2=
EXTT3=
EXTT4=
EXTT5=
EXTT6=
EXTT7=
EXTT8=
EXTT9=
EXTT10=
EXTT11=
EXTT12=
EXTT13=
EXTT14=
PLAYORDER=
